# Blender v3.0.1 OBJ File: ''
# www.blender.org
mtllib block of time.mtl
o node-2EAC7CA7_geom-2EAC7CA7
v 0.166700 1.000000 0.500000
v 0.166700 -0.000000 0.500000
v 0.500000 1.000000 0.500000
v 0.500000 -0.000000 0.500000
v 0.166700 1.000000 -0.500000
v 0.166700 1.000000 0.500000
v 0.500000 1.000000 -0.500000
v 0.500000 1.000000 0.500000
v 0.166700 0.000000 -0.500000
v 0.166700 1.000000 -0.500000
v 0.500000 0.000000 -0.500000
v 0.500000 1.000000 -0.500000
v 0.166700 -0.000000 0.500000
v 0.166700 0.000000 -0.500000
v 0.500000 -0.000000 0.500000
v 0.500000 0.000000 -0.500000
v 0.500000 -0.000000 0.500000
v 0.500000 0.000000 -0.500000
v 0.500000 1.000000 0.500000
v 0.500000 1.000000 -0.500000
v -0.500000 0.000000 -0.500000
v -0.500000 -0.000000 0.500000
v -0.500000 1.000000 -0.500000
v -0.500000 1.000000 0.500000
v -0.500000 1.000000 -0.500000
v -0.500000 1.000000 0.500000
v -0.166700 1.000000 -0.500000
v -0.166700 1.000000 0.500000
v -0.500000 1.000000 0.500000
v -0.500000 -0.000000 0.500000
v -0.166700 1.000000 0.500000
v -0.166700 -0.000000 0.500000
v -0.500000 -0.000000 0.500000
v -0.500000 0.000000 -0.500000
v -0.166700 -0.000000 0.500000
v -0.166700 0.000000 -0.500000
v -0.500000 0.000000 -0.500000
v -0.500000 1.000000 -0.500000
v -0.166700 0.000000 -0.500000
v -0.166700 1.000000 -0.500000
v -0.166700 1.000000 -0.500000
v -0.166700 1.000000 0.500000
v 0.166700 1.000000 -0.500000
v 0.166700 1.000000 0.500000
v -0.166700 -0.000000 0.500000
v -0.166700 0.000000 -0.500000
v 0.166700 -0.000000 0.500000
v 0.166700 0.000000 -0.500000
vt 0.500000 0.990000
vt 0.500000 0.260000
vt 0.740000 0.990000
vt 0.740000 0.260000
vt 0.990000 0.260000
vt 0.990000 0.990000
vt 0.760000 0.260000
vt 0.760000 0.990000
vt 0.250000 0.260000
vt 0.250000 0.990000
vt 0.010000 0.260000
vt 0.010000 0.990000
vt 0.990000 0.260000
vt 0.990000 0.990000
vt 0.760000 0.260000
vt 0.760000 0.990000
vt 0.010000 0.260000
vt 0.740000 0.260000
vt 0.010000 0.990000
vt 0.740000 0.990000
vt 0.010000 0.260000
vt 0.740000 0.260000
vt 0.010000 0.990000
vt 0.740000 0.990000
vt 0.760000 0.260000
vt 0.760000 0.990000
vt 0.990000 0.260000
vt 0.990000 0.990000
vt 0.010000 0.990000
vt 0.010000 0.260000
vt 0.250000 0.990000
vt 0.250000 0.260000
vt 0.760000 0.260000
vt 0.760000 0.990000
vt 0.990000 0.260000
vt 0.990000 0.990000
vt 0.740000 0.260000
vt 0.740000 0.990000
vt 0.500000 0.260000
vt 0.500000 0.990000
vt 0.740000 0.240000
vt 0.010000 0.240000
vt 0.740000 0.010000
vt 0.010000 0.010000
vt 0.740000 0.240000
vt 0.010000 0.240000
vt 0.740000 0.010000
vt 0.010000 0.010000
vn 0.0000 -0.0000 1.0000
vn 0.0000 1.0000 0.0000
vn 0.0000 0.0000 -1.0000
vn 0.0000 -1.0000 -0.0000
vn 1.0000 0.0000 0.0000
vn -1.0000 0.0000 0.0000
usemtl material-171C4573
s off
f 1/1/1 2/2/1 3/3/1
f 3/3/1 2/2/1 4/4/1
f 5/5/2 6/6/2 7/7/2
f 7/7/2 6/6/2 8/8/2
f 9/9/3 10/10/3 11/11/3
f 11/11/3 10/10/3 12/12/3
f 13/13/4 14/14/4 15/15/4
f 15/15/4 14/14/4 16/16/4
f 17/17/5 18/18/5 19/19/5
f 19/19/5 18/18/5 20/20/5
f 21/21/6 22/22/6 23/23/6
f 23/23/6 22/22/6 24/24/6
f 25/25/2 26/26/2 27/27/2
f 27/27/2 26/26/2 28/28/2
f 29/29/1 30/30/1 31/31/1
f 31/31/1 30/30/1 32/32/1
f 33/33/4 34/34/4 35/35/4
f 35/35/4 34/34/4 36/36/4
f 37/37/3 38/38/3 39/39/3
f 39/39/3 38/38/3 40/40/3
f 41/41/2 42/42/2 43/43/2
f 43/43/2 42/42/2 44/44/2
f 31/31/1 32/32/1 1/1/1
f 1/1/1 32/32/1 2/2/1
f 45/45/4 46/46/4 47/47/4
f 47/47/4 46/46/4 48/48/4
f 39/39/3 40/40/3 9/9/3
f 9/9/3 40/40/3 10/10/3
